<svg width="21" height="22" viewBox="0 0 21 22" fill="none" xmlns="http://www.w3.org/2000/svg">
<path fill-rule="evenodd" clip-rule="evenodd" d="M18.0234 7.39178C18.4777 7.42918 18.8165 7.82629 18.7802 8.28059C18.7736 8.3554 18.1774 15.7376 17.8342 18.8342C17.6208 20.7559 16.3514 21.9252 14.4351 21.9604C12.9688 21.9857 11.5542 22 10.1715 22C8.68096 22 7.22784 21.9835 5.79012 21.9538C3.9509 21.9175 2.67819 20.7251 2.47028 18.8419C2.12378 15.7178 1.53087 8.35429 1.52537 8.28059C1.48797 7.82629 1.82677 7.42808 2.28108 7.39178C2.72879 7.37968 3.13359 7.69429 3.16989 8.14749C3.1734 8.19524 3.41579 11.2023 3.67993 14.1775L3.73298 14.7712C3.86601 16.25 4.00087 17.671 4.1104 18.6604C4.2281 19.7307 4.80561 20.2829 5.82422 20.3038C8.57426 20.3621 11.3804 20.3654 14.4054 20.3104C15.4878 20.2895 16.0731 19.7483 16.1941 18.6527C16.5351 15.5792 17.1291 8.22229 17.1357 8.14749C17.172 7.69429 17.5735 7.37748 18.0234 7.39178ZM12.4802 0C13.49 0 14.3777 0.68091 14.6384 1.65662L14.9178 3.04375C15.0081 3.49846 15.4072 3.83054 15.8692 3.83783L19.4791 3.83796C19.9345 3.83796 20.3041 4.20756 20.3041 4.66297C20.3041 5.11838 19.9345 5.48798 19.4791 5.48798L15.9014 5.48782C15.8959 5.48793 15.8903 5.48798 15.8847 5.48798L15.8579 5.48688L4.44593 5.48785C4.43706 5.48794 4.42818 5.48798 4.41929 5.48798L4.40235 5.48688L0.825102 5.48798C0.369696 5.48798 9.15527e-05 5.11838 9.15527e-05 4.66297C9.15527e-05 4.20756 0.369696 3.83796 0.825102 3.83796L4.43425 3.83686L4.54537 3.82982C4.95929 3.77612 5.3033 3.46175 5.3873 3.04375L5.6546 1.70613C5.92631 0.68091 6.81402 0 7.82383 0H12.4802ZM12.4802 1.65002H7.82383C7.55983 1.65002 7.32772 1.82713 7.26062 2.08123L7.00432 3.36825C6.97175 3.53127 6.92431 3.68837 6.86361 3.83825H13.4407C13.38 3.68837 13.3324 3.53127 13.2997 3.36825L13.0324 2.03063C12.9763 1.82713 12.7442 1.65002 12.4802 1.65002Z" fill="black"/>
</svg>
